<svg width="550" height="263" xmlns="http://www.w3.org/2000/svg">
 <style type="text/css">.st0{fill:#5CB75C;}</style>

 <g>
  <title>background</title>
  <rect fill="rgba(0,0,0,0)" id="canvas_background" height="265" width="552" y="-1" x="-1"/>
 </g>
 <g>
  <title>Layer 1</title>
  <g id="svg_1">
   <g id="svg_2">
    <path id="svg_3" d="m220.4,2.1c0.4,0.1 0.7,0.2 1.1,0.2c6.3,0.1 12.3,1.4 18.1,3.8c4.8,2 8.9,4.8 12.3,8.6c2.6,2.9 4.4,6.2 5.8,9.8c1,2.9 1.7,5.8 1.9,8.8c0.1,1.6 0.5,3.2 0.4,4.7c-0.2,3 -0.4,6.1 -1,9c-0.6,2.7 -1.5,5.3 -2.6,7.8c-1.4,3.2 -3.5,6 -6,8.4c-3.4,3.1 -7.2,5.6 -11.6,7c-2.9,1 -5.9,1.9 -8.9,2.6c-2,0.4 -4.1,0.6 -6.1,0.6c-37,0 -73.9,0 -110.9,0c-1.6,0 -1.6,0 -1.6,1.6c0,5.4 0,10.7 0,16.1c0,1.2 0.4,1.5 1.6,1.5c34.8,0 69.6,-0.1 104.4,0c3.1,0 6.3,0.5 9.3,1.2c3.4,0.8 6.8,1.9 10,3.4c4.2,2 7.8,4.8 10.8,8.5c2.7,3.3 4.6,7 5.8,11.1c0.6,2.1 0.9,4.3 1.2,6.5c0.2,1.6 0.4,3.1 0.5,4.7c0,1.4 0,2.8 -0.2,4.1c-0.4,2.7 -0.7,5.5 -1.5,8.1c-1.4,5 -4,9.4 -7.7,13c-3.4,3.3 -7.3,5.8 -11.9,7.2c-2.9,0.9 -5.8,1.9 -8.8,2.5c-2,0.4 -4.1,0.6 -6.1,0.6c-35.2,0 -70.4,0 -105.6,0c-1.7,0 -1.7,0 -1.7,1.7c0,5.2 0,10.3 0,15.5c0,1.2 0.3,1.6 1.5,1.6c36.6,0 73.1,-0.1 109.7,0c3.2,0 6.4,0.5 9.4,1.3c3.4,0.8 6.7,1.9 9.8,3.4c4.2,2 7.8,4.8 10.8,8.5c2.7,3.3 4.7,7.1 5.8,11.2c0.7,2.9 1.1,5.9 1.4,8.8c0.2,1.6 0.1,3.3 0,4.9c-0.1,6.8 -1.9,13.1 -5.8,18.6c-3.5,5 -8.3,8.5 -13.9,10.8c-3.3,1.3 -6.6,2.3 -10.1,3c-2,0.4 -4.2,0.6 -6.2,0.6c-45.1,0 -90.2,0 -135.2,0c-1.2,0 -1.9,0.4 -2.6,1.4c-2.6,3.7 -6,6.4 -10.6,7.2c-8.4,1.4 -16.5,-2.7 -18.9,-11.6c-1.2,-4.3 -0.8,-8.7 1.6,-12.5c2.8,-4.6 6.9,-7.4 12.5,-7.8c3.5,-0.2 6.7,0.2 9.7,2c2.5,1.4 4.4,3.4 5.9,5.8c0.7,1.1 1.6,1.2 2.7,1.4c0.3,0.1 0.6,0 0.8,0c44.8,0 89.5,0 134.3,0c4.7,0 9.1,-1.4 13.1,-3.9c3.9,-2.4 6.3,-5.9 7.5,-10.1c1,-3.2 1.1,-6.6 0.7,-10c-0.3,-2.4 -0.8,-4.7 -1.8,-6.9c-1.6,-3.4 -4.1,-5.9 -7.3,-7.8c-3.1,-1.8 -6.4,-3 -10,-3.1c-1.9,-0.1 -3.8,-0.2 -5.7,-0.2c-36,0 -72.1,0 -108.1,0c-2.2,0 -4.3,-0.2 -6.5,-0.2c-1.2,0 -2.4,0 -3.6,0c-2.9,0.1 -5.8,-3 -5.8,-5.9c0,-12.4 0,-24.7 0,-37.1c0,-2.1 2.7,-4.4 4.6,-4.5c0.3,0 0.6,0 0.8,0c38.8,0 77.7,0 116.5,0c4.9,0 9.4,-1.4 13.6,-4c3.9,-2.4 6.1,-5.9 7.4,-10c1,-3.2 1.1,-6.6 0.7,-10c-0.4,-2.9 -1.1,-5.6 -2.6,-8.2c-1.6,-2.8 -4,-4.8 -6.7,-6.4c-3.1,-1.8 -6.3,-2.9 -9.9,-3.1c-1.4,-0.1 -2.8,-0.2 -4.2,-0.2c-37.8,0 -75.7,0 -113.5,0c-2.9,0 -5.5,-2.1 -6.6,-4.6c-0.1,-0.3 -0.1,-0.8 -0.1,-1.2c0,-12 0,-24 0,-36c0,-3.3 3.2,-6.4 6.4,-6.4c12.4,0 24.9,0 37.3,0c27.8,0 55.7,0 83.5,0c4.9,0 9.4,-1.4 13.6,-4c3.9,-2.4 6.1,-5.9 7.4,-10c1,-3.2 1.1,-6.6 0.7,-10c-0.4,-2.9 -1.1,-5.6 -2.6,-8.2c-1.6,-2.8 -4,-4.8 -6.7,-6.4c-3.1,-1.8 -6.3,-2.9 -9.9,-3.1c-1.3,-0.1 -2.7,-0.2 -4,-0.2c-50.5,0 -101,0 -151.4,0c-3.8,0 -6.9,1.5 -9.7,4.1c-3,2.9 -4.6,6.5 -5.5,10.5c-0.3,1.5 -0.3,3 -0.3,4.5c0,41.6 0,83.1 0,124.7c0,2.7 -0.6,5.3 -1.9,7.7c-1.2,2.1 -2.3,4.3 -3.6,6.4c-0.5,0.8 -1.2,1.5 -1.8,2.2c-0.6,0.7 -0.6,1.4 -0.3,2.4c0.5,1.5 0.5,3.1 0.7,4.7c0.1,1.2 0.1,2.3 0,3.5c-0.3,3.1 -1.4,5.9 -3.4,8.3c-0.9,1.1 -2.1,1.8 -3,2.9c-0.7,0.7 -1.1,1.7 -1.8,2.7c0.6,0.5 1.2,1 1.8,1.5c0.8,0.6 0.7,1.5 0,2.3c-1.3,1.3 -2.5,2.8 -3.7,4.1c-1.1,1.2 -1.7,1.1 -2.9,0c-1.4,-1.3 -2.9,-2.5 -4.4,-3.7c-2,2.3 -3.9,4.5 -5.8,6.7c-1.2,1.4 -2.5,2.8 -3.5,4.3c-1.4,2 -3.5,2.6 -5,2.1c-2.1,-0.8 -3.6,-2.5 -3.3,-5.1c0.1,-0.7 0.4,-1.5 0.8,-2c2,-2.5 4.2,-4.8 6.3,-7.3c1.2,-1.5 2.4,-2.9 3.6,-4.4c-1.7,-1.4 -3.4,-2.8 -5.2,-4.4c-1.2,1.3 -2.5,2.8 -3.8,4.2c-1.3,1.5 -2.6,3 -4,4.4c-0.9,1 -1.7,2 -2.6,2.8c-1.7,1.6 -5.2,1.5 -6.6,-0.6c-0.2,-0.3 -0.5,-0.4 -0.7,-0.6c0,-1.4 0,-2.9 0,-4.3c0.2,-0.2 0.5,-0.3 0.6,-0.5c1.9,-2.1 3.8,-4.3 5.7,-6.4c1.4,-1.7 2.8,-3.4 4.2,-5.2c-1.5,-1.4 -2.9,-2.8 -4.4,-4.1c-1,-0.9 -1.2,-1.7 -0.3,-2.7c1.4,-1.5 2.7,-3.1 4.1,-4.6c0.2,-0.2 0.5,-0.2 0.7,-0.3c1.7,-0.3 2.2,1.2 2.8,1.7c1,-0.9 2.3,-1.6 2.9,-2.6c1.3,-2.1 2.7,-3.9 4.7,-5.2c2.5,-1.7 5.2,-3.1 8.4,-3c1.1,0 2.2,0 3.2,0c0.4,0 0.9,-0.2 1.1,-0.5c1.2,-1.6 2.4,-3.1 3.4,-4.8c1,-1.7 1.6,-3.5 1.6,-5.5c0,-39.6 0,-79.3 0,-118.9c0,-4.2 0.2,-8.4 1.4,-12.5c1.6,-5.6 4.2,-10.6 8.2,-14.8c2.3,-2.4 4.9,-4.5 7.9,-6.1c3,-1.6 6,-2.9 9.4,-3.1c0.9,-0.1 1.7,-0.3 2.6,-0.5c50.4,-0.5 100.7,-0.5 151,-0.5z" class="st0"/>
    <path id="svg_4" d="m507.9,2.1c1.4,0.2 2.8,0.5 4.2,0.7c6.6,1.3 12.6,3.8 17.9,7.9c2.6,2.1 5.2,4.3 7.5,6.8c4.3,4.7 7.4,10.2 9.3,16.4c1.2,4 1.9,8 1.9,12.2c0,37.5 0,75 0,112.4c0,4.8 -1.2,9.3 -2.8,13.8c-1.6,4.4 -3.9,8.3 -6.8,11.9c-3.5,4.4 -7.7,8 -12.5,11c-4.7,2.9 -9.8,4.6 -15.2,5.7c-1.8,0.3 -3.6,0.5 -5.4,0.5c-62.4,0 -124.7,0 -187.1,0c-5.1,0 -10,-1.2 -14.8,-3.1c-6.8,-2.6 -12.4,-6.9 -17.2,-12.2c-5.5,-6.2 -9.2,-13.3 -10.5,-21.5c-0.4,-2.5 -0.7,-5 -0.7,-7.5c0,-37.2 0,-74.4 0,-111.6c0,-5.2 1.2,-10.1 3.1,-14.9c2.6,-6.7 6.8,-12.4 12.2,-17.1c5.1,-4.5 10.8,-7.9 17.5,-9.6c2.5,-0.6 5,-1 7.5,-1.5c0.1,0 0.2,-0.1 0.2,-0.2c63.9,-0.1 127.8,-0.1 191.7,-0.1zm-95.7,17.3c-28.4,0 -56.8,0 -85.2,0c-4.8,0 -9.4,0.6 -13.9,2.5c-4.1,1.7 -7.7,4 -10.9,7.2c-2.8,2.9 -5,6.2 -6.6,9.9c-1.5,3.4 -2.7,7 -2.7,10.7c-0.1,34.8 0,69.5 0,104.3c0,1.8 0.2,3.7 0.8,5.3c0.9,2.7 2,5.4 3.3,8c1.3,2.8 3.2,5.2 5.4,7.4c2.9,2.9 6.4,5.1 10.2,6.8c3.8,1.6 7.7,2.7 11.9,2.7c57.6,0 115.2,0 172.8,0c3.6,0 7.1,-0.2 10.5,-1.2c5.4,-1.7 10.2,-4.4 14.3,-8.4c2.9,-2.8 5,-6.2 6.6,-9.9c1.7,-3.8 2.8,-7.7 2.8,-11.8c0,-33.1 0,-66.2 0,-99.2c0,-3.5 -0.2,-6.9 -1.2,-10.3c-1.6,-5.5 -4.4,-10.3 -8.4,-14.4c-2.9,-3 -6.4,-5.1 -10.2,-6.8c-3.8,-1.6 -7.7,-2.7 -11.9,-2.7c-29.2,-0.1 -58.4,-0.1 -87.6,-0.1z" class="st0"/>
    <path id="svg_5" d="m410.8,237.5c-13.2,0 -26.5,-0.1 -39.7,0c-3.4,0 -7.3,-3.6 -7.7,-6.9c-0.3,-2.6 0.6,-4.4 1.7,-6.5c2.6,-4.9 5,-9.9 7.4,-14.9c0.4,-0.9 0.9,-1.3 2,-1.3c10.9,0 21.8,0 32.6,0c12.9,0 25.9,0.2 38.8,0.2c0.8,0 1.3,0.3 1.7,1c2.8,6 5.8,12 8.4,18c1.2,2.7 0.5,5.3 -1.3,7.6c-0.4,0.6 -1,1 -1.5,1.5c-0.8,0.7 -1.7,1.1 -2.9,1.1c-13.1,0.2 -26.3,0.2 -39.5,0.2z" class="st0"/>
    <path id="svg_6" d="m409.5,242.8c20.9,0 41.8,0 62.7,0c2.6,0 5.1,2.6 5.2,5.2c0.1,2.2 -0.2,4.2 -2.1,5.6c-1.1,0.8 -2.1,1.5 -3.6,1.5c-41.6,0 -83.3,0 -124.9,0c-2.5,0 -5.3,-1.8 -5.9,-4.3c-1,-4.3 1.4,-8 5.8,-8c21,0 41.9,0 62.8,0z" class="st0"/>
    <path id="svg_7" d="m380.6,109.5c-3.3,2.6 -6.6,5.2 -9.9,7.8c-3.1,2.5 -6,5.1 -9.1,7.6c-2.2,1.8 -4.3,3.5 -6.5,5.3c-2.7,2.1 -5.4,4.3 -8,6.4c-0.7,0.5 -0.8,1.1 -0.5,2c1,3.2 1.1,6.4 -0.3,9.4c-1.8,3.9 -4.9,6.5 -9.4,7.2c-3.4,0.5 -6.5,0.1 -9.3,-1.9c-3.5,-2.4 -5.5,-5.6 -5.4,-10c0,-2.2 0.1,-4.4 1.2,-6.3c2.3,-3.7 5.3,-6.3 9.9,-6.6c3,-0.2 5.8,0.1 8.3,1.8c0.3,0.2 0.9,0.1 1.1,-0.1c2.1,-1.6 4.1,-3.3 6.2,-4.9c3,-2.4 6.1,-4.8 9.1,-7.3c2.5,-2 5,-4.1 7.5,-6.2c2.7,-2.2 5.4,-4.4 8.1,-6.7c1,-0.8 2.1,-1.7 3,-2.4c-0.2,-0.9 -0.6,-1.7 -0.7,-2.5c-0.5,-4.1 -0.1,-8.1 3,-11.3c2.1,-2.2 4.7,-3.6 7.9,-3.8c3.2,-0.2 6.2,0.1 8.9,2.2c3.2,2.4 5.2,5.5 5.1,9.6c0,2.4 -0.3,1.8 1.9,2.7c4.8,1.8 9.6,3.8 14.4,5.6c4.6,1.7 9.2,3.4 13.7,5.1c2.7,1 5.5,2.1 8.2,3.2c0.8,0.3 1.4,0.4 2,-0.4c1.9,-2.1 4,-3.8 6.9,-4.3c2,-0.4 4,-0.3 5.9,0c1,0.2 1.6,0.1 2.2,-0.8c2.1,-3.2 4.2,-6.4 6.4,-9.6c2.9,-4.2 5.7,-8.4 8.6,-12.7c3,-4.5 6.1,-9 9.1,-13.4c2.4,-3.5 4.7,-7.1 7.1,-10.7c0.7,-1 0.6,-1.7 -0.1,-2.7c-1.4,-1.7 -2.1,-3.7 -2.1,-5.9c0,-2.5 -0.1,-5 1.2,-7.3c2.2,-3.9 5.4,-6.2 9.9,-6.6c4.3,-0.4 7.9,0.8 10.8,4c1.9,2.1 3,4.6 3.1,7.5c0.1,2.4 0,4.7 -1.2,6.8c-2.4,4.1 -5.8,6.8 -10.9,6.7c-1.3,0 -2.7,-0.3 -4,-0.3c-0.4,0 -0.9,0.4 -1.2,0.8c-1.8,2.7 -3.6,5.4 -5.4,8.1c-3.3,4.9 -6.6,9.8 -9.9,14.7c-2.8,4.2 -5.5,8.4 -8.3,12.5c-2.5,3.7 -5.2,7.4 -7.7,11.1c-0.5,0.8 -0.9,1.5 0,2.5c1.3,1.7 1.9,3.7 2.1,5.9c0.2,2.2 0.1,4.2 -0.8,6.2c-1.7,3.9 -4.5,6.6 -8.8,7.4c-3.5,0.7 -6.9,0.5 -9.9,-1.7c-3.6,-2.5 -5.7,-5.8 -5.5,-10.3c0.1,-1.2 -0.5,-1.6 -1.5,-2c-4.3,-1.6 -8.5,-3.2 -12.7,-4.9c-4,-1.5 -8,-3 -12,-4.5c-2.4,-0.9 -4.9,-1.9 -7.3,-2.9c-1.7,-0.7 -3.4,-1.3 -5.1,-2c-0.9,-0.3 -1.4,-0.2 -2.1,0.6c-1.6,2 -3.8,3.5 -6.4,4c-3.2,0.6 -6.4,0.5 -9.4,-1.2c-0.4,0.3 -0.9,-0.2 -1.4,-0.5z" class="st0"/>
   </g>
  </g>
 </g>
</svg>